<?xml version="1.0" standalone="no"?>
<!DOCTYPE svg PUBLIC "-//W3C//DTD SVG 20010904//EN"
 "http://www.w3.org/TR/2001/REC-SVG-20010904/DTD/svg10.dtd">
<svg version="1.0" xmlns="http://www.w3.org/2000/svg"
 width="16.000000pt" height="16.000000pt" viewBox="0 0 16.000000 16.000000"
 preserveAspectRatio="xMidYMid meet">
<metadata>
Created by potrace 1.11, written by Peter Selinger 2001-2013
</metadata>
<g transform="translate(0.000000,16.000000) scale(0.001461,-0.001461)"
fill="#000000" stroke="none">
<path d="M6665 8998 c6 -14 -42 -17 -63 -4 -7 4 -12 3 -12 -3 0 -6 -7 -7 -17
-4 -12 5 -14 3 -8 -7 6 -9 4 -11 -5 -5 -18 11 -70 12 -70 1 0 -5 -6 -3 -14 3
-11 9 -15 9 -19 -1 -4 -11 -6 -11 -6 0 -1 9 -6 10 -18 4 -10 -5 -30 -8 -45 -7
-16 1 -28 -2 -28 -7 0 -10 -23 -6 -32 6 -4 6 -12 6 -20 -1 -7 -6 -43 -10 -79
-9 -50 1 -65 -2 -62 -12 6 -15 -28 -5 -39 12 -5 7 -8 3 -8 -9 0 -11 -4 -15 -8
-10 -4 6 -14 10 -22 10 -8 0 -18 -4 -22 -10 -5 -6 -8 -5 -8 3 0 10 -5 10 -21
1 -15 -8 -19 -8 -15 0 5 8 0 8 -20 1 -19 -8 -31 -7 -42 2 -13 11 -15 10 -10
-2 4 -11 -2 -15 -27 -14 -17 1 -37 4 -42 7 -6 4 -16 0 -23 -7 -6 -8 -19 -13
-28 -11 -9 2 -21 4 -27 5 -5 1 -12 1 -15 0 -21 -8 -40 -6 -40 3 0 7 -4 5 -10
-3 -8 -13 -13 -13 -31 -2 -11 8 -18 9 -14 3 4 -7 -3 -11 -17 -12 -13 0 -34 -3
-48 -6 -14 -2 -29 -5 -35 -7 -5 -1 -16 -6 -24 -10 -10 -6 -12 -5 -7 2 4 7 3
12 -3 12 -5 0 -12 -6 -14 -12 -4 -10 -8 -9 -16 2 -7 10 -11 11 -11 2 0 -8 -9
-11 -25 -8 -14 3 -23 1 -20 -5 4 -5 -5 -10 -19 -10 -38 -2 -44 -3 -52 -11 -4
-4 -13 -3 -20 3 -8 7 -14 7 -19 -1 -3 -6 -11 -7 -17 -4 -6 4 -8 2 -5 -3 7 -10
-27 -20 -83 -25 -14 -2 -31 -10 -38 -18 -8 -8 -11 -10 -8 -3 4 7 -1 11 -13 10
-11 0 -17 -5 -15 -9 3 -4 2 -8 -3 -9 -4 0 -19 -3 -33 -5 -14 -3 -33 -5 -42 -6
-10 -1 -18 -6 -18 -11 0 -5 -7 -7 -15 -3 -8 3 -15 1 -15 -4 0 -5 -7 -7 -15 -4
-8 4 -15 2 -15 -3 0 -5 -6 -10 -12 -11 -7 0 -24 -3 -38 -7 -14 -4 -31 -7 -37
-7 -7 -1 -13 -5 -13 -9 0 -8 -49 -23 -67 -20 -7 1 -13 -2 -13 -7 0 -9 -53 -26
-77 -25 -7 0 -13 -3 -13 -7 0 -4 -20 -13 -45 -19 -25 -6 -44 -15 -41 -20 3 -4
-5 -7 -19 -6 -14 2 -26 -3 -30 -12 -3 -9 -8 -13 -12 -10 -3 4 -12 2 -20 -5 -7
-6 -16 -8 -20 -5 -3 4 -11 0 -17 -8 -6 -8 -21 -16 -34 -18 -13 -2 -28 -10 -33
-18 -5 -8 -9 -10 -9 -5 0 4 -11 1 -25 -8 -14 -9 -29 -14 -34 -11 -5 2 -12 -2
-15 -11 -3 -8 -10 -13 -16 -9 -5 3 -18 -3 -30 -15 -12 -12 -20 -15 -20 -7 0 6
-7 3 -16 -8 -8 -11 -16 -19 -17 -17 -5 8 -57 -18 -57 -28 0 -6 -4 -9 -9 -5 -5
3 -12 1 -16 -5 -4 -6 -10 -8 -15 -5 -4 3 -11 -2 -14 -11 -3 -8 -10 -12 -16 -9
-5 3 -10 2 -10 -2 0 -5 -16 -17 -35 -27 -19 -11 -35 -24 -35 -30 0 -6 -4 -5
-9 3 -7 11 -11 9 -20 -8 -7 -11 -18 -21 -25 -21 -7 0 -26 -12 -42 -27 -16 -15
-30 -26 -31 -26 -10 4 -42 -11 -37 -18 3 -5 -2 -9 -10 -9 -9 0 -16 -4 -16 -10
0 -5 -9 -10 -21 -10 -13 0 -19 -5 -16 -13 3 -8 -3 -14 -14 -14 -11 -1 -32 -16
-47 -32 -14 -17 -31 -31 -37 -31 -5 0 -3 5 5 10 11 7 12 10 2 10 -8 0 -16 -9
-19 -20 -3 -11 -9 -17 -15 -14 -5 3 -20 -6 -34 -21 -13 -14 -24 -22 -24 -18 0
4 -7 -1 -15 -11 -8 -11 -15 -16 -15 -12 0 4 -11 -4 -23 -18 -13 -14 -27 -23
-30 -20 -3 3 -10 -4 -17 -15 -6 -12 -15 -21 -21 -21 -16 0 -59 -36 -52 -44 6
-5 -12 -10 -29 -7 -5 0 -8 -6 -8 -14 0 -8 -3 -14 -7 -13 -7 3 -36 -20 -97 -77
-11 -11 -24 -19 -28 -18 -5 2 -8 -5 -8 -14 0 -9 -3 -14 -6 -11 -6 6 -183 -164
-178 -171 5 -5 -37 -41 -48 -41 -5 0 -7 -4 -3 -9 3 -5 -2 -17 -11 -25 -8 -9
-12 -16 -7 -16 4 0 -1 -7 -11 -15 -11 -8 -17 -15 -13 -15 8 0 -2 -14 -35 -51
-10 -10 -13 -19 -8 -19 6 0 5 -6 -2 -14 -7 -8 -17 -11 -22 -8 -5 3 -7 -2 -3
-11 3 -10 3 -17 -1 -17 -5 0 -14 -16 -22 -35 -8 -19 -18 -35 -22 -35 -5 0 -6
-4 -3 -10 3 -5 1 -10 -4 -10 -6 0 -11 -7 -11 -15 0 -8 -5 -15 -11 -15 -5 0 -7
-4 -4 -10 3 -5 1 -10 -5 -10 -6 0 -9 -4 -6 -9 3 -5 -5 -25 -19 -45 -13 -20
-22 -36 -19 -36 3 0 -4 -16 -15 -36 -12 -19 -18 -40 -15 -46 4 -7 2 -8 -4 -4
-11 6 -16 -6 -13 -26 0 -5 -4 -8 -10 -8 -5 0 -7 -4 -4 -10 3 -5 2 -10 -4 -10
-6 0 -7 -7 -4 -17 5 -12 3 -14 -7 -8 -10 6 -12 4 -7 -9 4 -10 1 -19 -8 -22 -8
-4 -15 -10 -15 -16 0 -5 6 -6 13 -2 7 4 6 0 -3 -12 -25 -31 -42 -66 -36 -71 3
-4 -2 -12 -12 -19 -14 -11 -14 -13 -2 -14 10 0 11 -3 3 -8 -6 -4 -13 -14 -15
-22 -2 -8 -9 -21 -16 -28 -7 -8 -11 -17 -9 -20 4 -7 -28 -42 -38 -42 -3 0 -10
0 -16 0 -5 0 -7 -5 -3 -12 5 -8 2 -9 -10 -5 -9 4 -15 3 -13 -1 3 -4 -1 -13 -9
-20 -8 -7 -14 -10 -14 -7 0 3 -6 1 -12 -5 -7 -6 -22 -18 -33 -26 -11 -9 -14
-12 -6 -8 9 5 12 3 7 -5 -4 -6 -11 -9 -16 -6 -5 3 -20 -6 -33 -19 -14 -14 -28
-22 -31 -19 -3 4 -6 1 -6 -5 0 -7 -7 -12 -16 -12 -8 0 -13 -4 -9 -9 3 -5 -4
-12 -15 -16 -11 -3 -20 -11 -20 -17 0 -6 -3 -9 -6 -6 -3 4 -14 -2 -25 -13 -11
-11 -25 -17 -31 -13 -7 4 -8 3 -4 -5 4 -6 0 -14 -11 -18 -10 -4 -25 -15 -34
-25 -9 -10 -19 -15 -23 -11 -3 3 -6 2 -6 -3 0 -5 -16 -18 -35 -28 -19 -10 -32
-23 -29 -27 3 -5 -3 -9 -13 -9 -10 0 -24 -9 -31 -21 -7 -12 -16 -18 -19 -15
-3 3 -17 -6 -30 -20 -12 -14 -23 -21 -23 -17 0 4 -7 -1 -15 -11 -8 -11 -15
-16 -15 -11 0 4 -9 -2 -20 -15 -11 -13 -20 -20 -20 -16 0 4 -11 -4 -23 -18
-13 -14 -27 -23 -30 -19 -4 3 -7 1 -7 -6 0 -7 -4 -10 -9 -7 -5 3 -12 -1 -15
-10 -3 -8 -11 -12 -16 -9 -6 4 -9 3 -8 -2 2 -4 -1 -9 -5 -10 -4 -1 -21 -16
-37 -33 -15 -16 -33 -30 -39 -30 -6 0 -11 -4 -11 -10 0 -5 -6 -9 -12 -7 -7 1
-12 -4 -11 -10 2 -7 -4 -13 -12 -13 -8 0 -15 -5 -15 -11 0 -5 -4 -8 -9 -5 -5
3 -12 -1 -15 -9 -3 -8 -11 -14 -18 -13 -7 2 -12 -3 -11 -9 2 -7 -4 -13 -12
-13 -8 0 -15 -4 -15 -10 0 -5 -7 -10 -16 -10 -9 0 -18 -9 -21 -20 -3 -11 -9
-18 -13 -15 -4 2 -23 -11 -43 -29 -21 -19 -37 -32 -37 -29 0 2 -12 -8 -27 -22
-16 -14 -35 -32 -44 -40 -9 -8 -21 -15 -28 -15 -7 0 -10 -4 -7 -8 3 -5 -6 -15
-19 -22 -13 -7 -22 -17 -19 -22 3 -4 -2 -8 -10 -8 -8 0 -27 -15 -41 -32 -15
-18 -24 -26 -20 -18 3 8 -1 6 -9 -4 -9 -11 -16 -23 -16 -28 0 -4 -6 -7 -12 -5
-7 1 -12 -3 -11 -10 2 -6 -6 -15 -17 -18 -11 -4 -20 -11 -20 -17 0 -15 -53
-68 -62 -62 -4 3 -5 -3 -1 -12 4 -12 3 -15 -5 -10 -7 4 -12 1 -12 -9 0 -9 -4
-13 -10 -10 -5 3 -10 0 -10 -7 0 -8 -9 -20 -20 -28 -11 -8 -20 -20 -20 -27 0
-7 -9 -18 -20 -25 -11 -7 -20 -17 -20 -21 0 -5 -19 -27 -42 -50 -24 -22 -37
-37 -30 -33 20 12 14 -3 -11 -27 -37 -35 -117 -148 -117 -164 0 -8 -5 -11 -10
-8 -6 3 -14 -5 -20 -19 -5 -14 -14 -26 -20 -26 -6 0 -8 -5 -5 -10 3 -6 -1 -13
-9 -16 -9 -3 -14 -10 -11 -14 3 -4 -2 -13 -10 -20 -8 -7 -12 -16 -9 -21 3 -5
-2 -9 -11 -9 -9 0 -14 -4 -11 -8 3 -5 -4 -19 -15 -30 -11 -12 -17 -22 -13 -22
3 0 1 -6 -5 -13 -6 -8 -7 -18 -3 -22 4 -5 2 -5 -4 -2 -6 4 -16 -5 -22 -18 -7
-14 -16 -25 -22 -25 -6 0 -8 -4 -5 -10 3 -5 -5 -25 -19 -43 -14 -19 -23 -37
-19 -40 3 -4 1 -7 -5 -7 -7 0 -12 -7 -12 -15 0 -9 -7 -18 -16 -22 -8 -3 -13
-12 -10 -19 3 -8 1 -14 -5 -14 -6 0 -8 -4 -4 -9 3 -6 -3 -14 -12 -20 -10 -5
-18 -13 -17 -18 2 -18 -9 -43 -16 -38 -5 3 -6 -3 -3 -14 3 -11 -2 -21 -12 -25
-9 -3 -13 -10 -10 -16 3 -5 -1 -10 -9 -10 -9 0 -13 -6 -10 -15 3 -8 -1 -22
-10 -30 -9 -9 -16 -25 -16 -35 0 -10 -7 -20 -15 -24 -8 -3 -15 -10 -15 -16 0
-6 6 -8 13 -4 9 6 9 5 0 -8 -7 -8 -9 -19 -5 -23 4 -5 2 -5 -5 -1 -11 6 -30
-29 -25 -47 1 -4 -2 -7 -8 -7 -5 0 -10 -9 -10 -20 0 -11 -4 -20 -10 -20 -5 0
-7 -7 -4 -15 4 -8 1 -15 -5 -15 -6 0 -11 -9 -11 -20 0 -11 -4 -20 -8 -20 -5 0
-9 -6 -10 -12 -6 -50 -10 -61 -23 -69 -8 -5 -10 -9 -5 -9 5 0 3 -7 -4 -15 -7
-8 -9 -15 -4 -15 5 0 1 -5 -9 -11 -14 -8 -16 -14 -6 -25 9 -11 8 -15 -5 -20
-9 -3 -16 -14 -16 -24 0 -26 -11 -51 -20 -45 -4 2 -6 -7 -4 -21 1 -15 -4 -28
-12 -31 -8 -3 -12 -9 -9 -13 3 -4 -2 -24 -10 -43 -8 -19 -11 -37 -8 -41 4 -3
1 -6 -6 -6 -8 0 -11 -6 -7 -16 3 -8 2 -12 -4 -9 -6 3 -10 -5 -10 -19 0 -14 -6
-26 -12 -26 -9 0 -8 -4 2 -10 8 -5 10 -10 5 -10 -6 0 -16 -9 -23 -21 -8 -12
-9 -18 -4 -15 6 3 8 -2 5 -14 -3 -11 -9 -18 -13 -15 -4 3 -10 -2 -14 -10 -3
-8 0 -15 7 -15 7 0 4 -5 -6 -11 -9 -5 -17 -15 -17 -22 0 -7 4 -6 10 3 5 8 10
11 10 7 0 -5 -9 -22 -20 -38 -12 -16 -20 -36 -18 -46 2 -10 -2 -17 -9 -16 -13
3 -12 -22 2 -34 4 -4 5 -3 1 4 -3 7 2 14 14 18 11 3 19 12 17 18 -1 7 4 11 11
9 8 -1 11 2 7 8 -3 5 1 13 9 16 8 3 18 14 21 25 4 11 11 16 17 13 8 -5 9 -1 5
10 -4 10 -3 15 3 11 6 -3 10 -1 10 5 0 6 4 9 9 6 5 -3 11 4 14 15 4 13 10 18
18 13 7 -4 10 -3 6 3 -4 6 18 35 48 64 30 30 55 60 55 67 0 7 5 10 10 7 6 -3
10 -1 10 5 0 6 5 8 12 4 7 -4 8 -3 4 5 -8 12 18 44 28 34 3 -4 6 1 6 10 0 9 9
22 20 29 11 7 20 19 20 26 0 7 5 10 10 7 6 -3 10 -2 10 3 0 13 182 198 191
195 5 -2 5 5 2 14 -4 11 -3 14 5 9 8 -4 12 -1 12 10 0 10 3 15 6 12 3 -4 38
26 77 65 40 40 73 71 75 69 1 -1 2 1 3 6 0 4 9 10 20 14 13 5 18 13 13 20 -4
7 -3 10 1 5 5 -4 17 1 28 10 15 13 18 14 13 3 -4 -8 2 -4 14 10 12 14 19 18
15 10 -4 -8 3 -4 14 9 12 13 21 20 21 17 0 -6 9 0 49 34 10 8 23 16 30 18 15
3 73 43 83 57 5 7 8 7 8 0 0 -6 3 -6 8 0 4 6 28 23 55 38 26 15 47 32 47 38 0
6 5 7 10 4 6 -3 10 -1 10 5 0 6 5 8 10 5 6 -3 10 -1 10 4 0 6 7 11 15 11 8 0
15 5 15 11 0 6 9 8 23 4 17 -5 19 -4 7 4 -13 10 -8 15 13 12 4 0 7 4 7 10 0 5
4 8 9 5 5 -3 12 1 15 10 3 8 10 12 16 9 5 -3 10 -1 10 5 0 6 5 8 10 5 6 -3 10
-2 10 4 0 5 18 17 40 27 21 10 36 22 33 27 -4 6 3 8 15 5 12 -4 25 -1 29 4 4
7 1 8 -8 3 -11 -6 -11 -5 -3 4 6 7 20 14 30 16 11 1 18 8 17 13 -2 6 4 9 12 6
8 -4 15 -1 15 6 0 6 5 8 10 5 6 -3 13 1 16 9 3 9 10 13 15 10 5 -3 9 0 9 7 0
7 3 10 6 6 3 -3 23 3 45 14 21 12 43 18 49 14 5 -3 10 -1 10 4 0 6 3 10 8 10
24 -4 42 2 36 13 -5 7 -3 8 7 2 22 -14 49 -15 49 -2 0 9 3 9 12 0 7 -7 20 -12
30 -12 10 0 18 -4 18 -10 0 -5 7 -10 16 -10 8 0 12 -4 9 -10 -3 -6 0 -10 7
-10 8 0 9 -3 2 -8 -10 -7 -42 -70 -43 -85 0 -4 -13 -19 -27 -32 -15 -14 -23
-25 -18 -25 5 0 1 -5 -9 -11 -9 -6 -15 -14 -12 -19 3 -5 -4 -12 -16 -15 -11
-4 -18 -9 -15 -12 3 -3 -2 -12 -10 -20 -8 -8 -11 -20 -7 -26 4 -6 0 -8 -10 -4
-10 4 -17 1 -17 -6 -1 -19 -56 -87 -65 -79 -5 4 -5 2 -2 -4 3 -6 -5 -22 -19
-37 -13 -14 -24 -29 -24 -31 0 -6 -26 -39 -52 -68 -10 -10 -19 -21 -20 -25 -3
-11 -19 -31 -46 -56 -12 -11 -20 -27 -18 -34 3 -7 -1 -13 -9 -13 -8 0 -15 -4
-15 -10 0 -5 -8 -19 -17 -29 -34 -37 -42 -49 -37 -54 3 -3 -4 -8 -15 -12 -12
-3 -19 -11 -16 -16 4 -5 1 -9 -6 -9 -7 0 -10 -3 -6 -6 3 -3 -8 -19 -24 -35
-16 -16 -27 -29 -24 -29 3 0 -3 -10 -14 -22 -11 -11 -18 -25 -15 -30 3 -4 -1
-8 -8 -8 -8 0 -21 -12 -30 -27 -9 -16 -25 -38 -35 -50 -45 -53 -52 -63 -48
-63 3 0 -8 -13 -24 -29 -16 -16 -28 -31 -27 -33 1 -1 -6 -11 -16 -20 -10 -10
-18 -15 -18 -12 0 3 -16 -10 -35 -30 -19 -20 -39 -36 -45 -36 -5 0 -7 -6 -4
-14 3 -9 -4 -16 -21 -20 -14 -4 -23 -11 -20 -16 3 -5 -4 -11 -15 -15 -11 -4
-18 -10 -15 -15 3 -4 -5 -10 -16 -13 -12 -3 -18 -10 -15 -15 3 -5 -6 -14 -19
-20 -14 -7 -25 -16 -25 -22 0 -6 -4 -8 -10 -5 -5 3 -10 -1 -10 -10 0 -9 -5
-13 -11 -10 -6 4 -13 -3 -16 -15 -3 -13 -11 -19 -19 -16 -13 5 -19 -6 -15 -27
1 -5 -2 -6 -7 -3 -5 3 -30 -15 -55 -40 -26 -25 -47 -42 -47 -37 -1 4 -7 -3
-15 -17 -8 -14 -14 -21 -15 -17 0 4 -13 -6 -30 -23 -16 -16 -32 -30 -36 -30
-4 0 -17 -10 -29 -22 -42 -42 -90 -83 -96 -81 -3 1 -6 -5 -6 -12 0 -10 4 -12
12 -5 7 5 16 6 20 2 5 -4 4 -1 0 7 -6 11 -4 13 9 8 10 -4 15 -3 11 3 -3 6 3
10 14 10 12 0 21 4 21 10 0 5 7 6 17 3 11 -4 14 -3 9 5 -6 11 5 17 27 13 4 0
7 7 7 16 0 14 2 15 9 5 6 -11 11 -10 24 3 9 8 19 16 22 15 21 -1 25 1 19 12
-4 7 -3 8 5 4 6 -4 18 -2 26 4 8 7 15 9 15 4 0 -4 7 1 16 12 8 10 12 12 8 4
-5 -8 9 -2 31 14 21 16 35 24 31 17 -6 -10 -4 -10 12 0 12 7 18 18 14 24 -3 5
3 3 13 -5 15 -12 17 -12 10 -1 -6 11 -4 13 8 8 11 -4 17 -1 17 8 0 8 3 14 8
13 15 -4 52 14 47 22 -3 5 3 7 14 5 11 -2 25 2 31 10 6 7 22 16 35 19 14 4 25
11 25 16 0 6 5 10 11 10 5 0 7 -4 4 -10 -3 -6 1 -7 9 -4 9 3 14 10 11 14 -3 4
5 11 18 15 12 4 24 9 27 10 3 1 15 6 28 10 12 4 22 12 22 17 0 5 4 7 9 4 5 -3
14 1 21 9 7 8 21 15 31 15 11 0 19 7 20 18 0 11 2 12 6 4 4 -10 10 -9 26 5 14
12 18 13 12 3 -5 -9 0 -8 13 4 12 11 22 15 22 10 0 -5 4 -3 9 4 4 7 17 14 28
15 12 0 19 6 16 13 -3 8 4 11 21 10 15 -2 32 4 42 15 9 10 29 21 46 24 16 4
32 13 35 20 2 8 11 11 19 8 8 -3 14 0 14 7 0 6 4 9 9 6 5 -3 12 1 15 10 3 8
11 12 17 9 5 -4 17 1 25 11 9 11 13 14 10 7 -5 -8 0 -8 19 0 14 7 25 15 25 20
0 4 7 7 15 7 8 0 15 6 15 13 0 9 3 8 9 -2 7 -11 11 -9 21 9 9 18 14 20 21 9 6
-11 9 -10 15 4 4 10 13 16 21 13 8 -3 12 -2 9 2 -2 4 7 12 20 19 18 8 22 8 17
0 -3 -7 2 -4 13 5 10 9 26 18 34 20 8 2 21 10 28 18 8 8 11 9 7 3 -4 -9 -1
-11 9 -7 9 3 14 10 11 14 -3 5 -1 11 5 15 5 3 10 1 10 -6 0 -7 7 -4 16 7 8 10
13 14 10 7 -5 -8 0 -8 18 0 13 7 22 15 20 19 -5 7 18 12 39 9 4 0 7 4 7 11 0
6 3 9 6 5 4 -3 13 1 22 9 8 9 23 13 33 11 10 -3 17 0 16 7 -1 6 6 10 15 10 10
-1 15 2 12 7 -3 5 2 9 11 9 10 0 13 5 9 12 -4 7 -3 8 5 4 6 -4 32 4 56 18 25
14 43 19 39 13 -3 -7 4 -1 15 12 12 13 21 17 21 10 0 -8 5 -6 13 5 7 9 18 16
24 14 6 -2 19 6 28 17 9 11 14 15 11 8 -4 -7 4 -6 24 3 16 9 30 20 30 25 0 5
5 9 11 9 5 0 7 -6 4 -12 -4 -7 0 -5 8 4 8 10 17 15 20 11 4 -3 7 -1 7 6 0 7 5
9 10 6 6 -3 10 -1 10 5 0 6 4 9 9 6 4 -3 19 3 31 14 12 11 27 17 31 14 5 -3 9
0 9 6 0 6 4 8 10 5 5 -3 10 -1 10 5 0 7 6 10 13 7 6 -2 18 3 25 12 11 13 12
13 7 1 -4 -10 -2 -9 8 3 8 9 20 17 26 17 7 0 9 5 5 13 -5 8 -3 8 9 -2 14 -11
18 -11 23 3 4 10 12 15 19 12 8 -3 16 2 19 10 9 24 25 16 43 -21 9 -19 21 -35
25 -35 5 0 7 -4 4 -9 -3 -5 1 -11 9 -15 8 -3 15 -13 15 -21 0 -9 4 -13 10 -10
5 3 7 0 4 -8 -3 -9 4 -21 16 -30 11 -8 20 -19 18 -24 -2 -5 9 -21 24 -35 15
-14 25 -28 22 -31 -3 -3 4 -10 15 -17 12 -6 19 -15 16 -19 -3 -5 2 -12 11 -15
8 -3 12 -10 9 -16 -3 -5 3 -10 14 -10 12 0 21 -5 21 -11 0 -5 -6 -7 -12 -4 -7
4 1 -5 17 -20 17 -14 29 -30 28 -35 -2 -6 4 -10 13 -10 8 0 12 -4 9 -10 -3 -5
1 -10 9 -10 9 0 16 -7 16 -16 0 -8 5 -12 10 -9 6 3 10 1 10 -5 0 -16 55 -70
71 -70 7 0 10 -3 6 -6 -7 -8 17 -34 32 -34 6 0 11 -6 11 -14 0 -8 13 -23 29
-32 17 -10 28 -21 25 -26 -3 -4 0 -8 6 -8 6 0 24 -14 40 -30 16 -17 34 -30 40
-30 6 0 8 -4 5 -10 -3 -5 -2 -10 2 -10 11 0 48 -28 83 -62 15 -16 32 -28 38
-28 5 0 12 -7 16 -15 3 -8 11 -15 18 -15 8 0 20 -9 28 -19 7 -11 17 -18 21
-16 4 3 9 -2 13 -10 3 -8 12 -15 21 -15 8 0 15 -5 15 -11 0 -5 4 -7 10 -4 5 3
10 -2 10 -11 0 -10 3 -14 6 -11 4 4 14 -1 23 -11 9 -9 23 -18 31 -20 8 -2 19
-10 23 -18 4 -8 15 -14 22 -14 8 0 15 -4 15 -10 0 -5 7 -10 15 -10 8 0 15 -4
15 -10 0 -5 7 -10 15 -10 8 0 15 -4 15 -10 0 -5 7 -10 15 -10 8 0 15 -4 15
-10 0 -5 5 -10 11 -10 7 0 18 -8 25 -17 7 -10 16 -18 21 -18 22 -2 53 -18 53
-27 0 -6 3 -8 6 -5 4 4 15 -2 25 -14 12 -14 18 -16 22 -7 3 8 6 6 6 -5 1 -10
5 -16 10 -12 5 3 16 -1 24 -9 8 -8 17 -12 21 -9 3 4 6 1 6 -5 0 -7 7 -12 15
-12 8 0 15 -5 15 -11 0 -5 4 -8 8 -5 5 3 18 -2 28 -12 10 -10 26 -17 34 -17 8
0 21 -6 29 -13 7 -7 20 -11 28 -8 8 3 11 2 8 -3 -3 -5 -1 -12 5 -16 5 -3 10 0
10 7 1 9 5 7 14 -4 7 -10 16 -15 19 -11 4 3 9 -2 13 -11 5 -13 9 -14 20 -5 11
9 14 9 14 0 0 -7 4 -9 10 -6 6 3 10 1 10 -5 0 -6 5 -8 10 -5 6 3 10 2 10 -2 0
-5 10 -9 22 -10 11 -1 24 -6 27 -10 3 -4 13 -9 21 -10 8 -1 26 -4 40 -8 14 -4
31 -7 38 -7 6 -1 12 -6 12 -11 0 -5 7 -7 15 -4 8 4 17 2 20 -3 4 -6 19 -10 36
-10 16 0 29 -5 29 -11 0 -8 4 -8 14 0 10 9 15 8 19 -3 4 -9 15 -13 26 -11 11
2 23 -1 27 -6 4 -6 11 -6 20 2 11 9 14 9 14 -1 0 -7 8 -10 20 -7 11 3 18 1 15
-3 -8 -13 18 -18 39 -8 13 7 16 7 12 -1 -4 -6 6 -9 28 -7 21 1 32 -2 29 -7 -4
-6 3 -8 15 -5 12 4 22 2 22 -2 0 -4 10 -6 22 -2 16 4 19 2 13 -9 -8 -12 -6
-12 8 0 11 9 17 10 17 2 0 -6 5 -11 11 -11 5 0 7 6 3 13 -6 9 -4 9 7 1 8 -6
24 -10 37 -8 12 2 22 -1 22 -6 0 -7 7 -7 21 1 12 6 19 7 15 1 -3 -5 3 -12 14
-15 13 -3 18 -1 13 6 -5 9 -3 9 8 0 8 -6 29 -10 47 -9 17 1 32 0 32 -3 0 -3
24 -7 53 -8 111 -4 117 -5 110 -16 -4 -7 1 -6 10 2 13 10 17 10 17 1 0 -10 3
-10 15 0 11 9 15 9 15 1 0 -8 6 -9 18 -2 11 6 24 6 35 0 9 -6 22 -7 27 -4 6 3
10 1 10 -4 0 -6 -5 -11 -12 -11 -6 0 -8 -3 -4 -7 4 -4 16 3 28 17 11 14 17 20
14 14 -3 -7 1 -17 9 -24 13 -11 14 -10 8 6 -6 16 -4 17 8 7 12 -10 18 -10 29
0 9 8 11 9 6 0 -4 -8 7 -11 41 -11 27 1 59 -2 72 -6 14 -5 21 -4 18 1 -4 5 0
10 8 10 8 0 15 -4 15 -9 0 -5 9 -4 20 2 14 7 20 7 20 0 0 -5 7 -10 15 -10 8 0
15 -4 15 -10 0 -5 7 -10 15 -10 8 0 15 -5 15 -11 0 -5 5 -7 10 -4 6 3 10 -1
10 -10 0 -9 5 -13 10 -10 6 3 10 1 10 -5 0 -6 5 -8 10 -5 6 3 10 3 10 -2 0 -8
61 -47 68 -43 2 1 12 -9 23 -21 10 -12 19 -19 19 -15 0 4 7 0 16 -8 8 -9 20
-14 25 -11 5 4 9 -1 9 -10 0 -9 5 -15 12 -13 7 3 23 -6 36 -19 25 -25 37 -30
26 -10 -4 6 4 2 18 -11 13 -12 28 -19 33 -15 4 5 6 1 2 -9 -4 -12 0 -15 18
-13 17 1 26 -4 30 -17 4 -10 10 -16 15 -13 5 3 11 1 15 -5 4 -6 10 -8 15 -5 5
3 13 -3 19 -12 5 -10 12 -17 15 -15 19 8 38 0 32 -13 -4 -13 -2 -14 14 -5 19
10 25 6 20 -15 -1 -5 2 -7 5 -3 4 4 21 0 37 -8 17 -9 32 -13 35 -10 3 3 12 -1
19 -9 8 -8 21 -12 29 -9 8 4 15 1 15 -5 0 -7 10 -9 26 -5 17 4 25 3 21 -3 -3
-5 0 -10 8 -10 8 0 12 4 9 9 -3 5 6 7 20 4 16 -3 26 0 26 7 0 8 3 8 8 2 11
-15 32 -17 32 -3 0 9 4 8 10 -2 9 -13 11 -13 20 0 5 8 10 11 10 6 0 -5 8 -2
17 5 11 10 14 10 9 2 -4 -7 -2 -13 3 -13 6 0 11 5 11 11 0 6 7 9 15 6 8 -4 17
-2 20 3 3 5 12 7 20 3 8 -3 15 0 15 7 0 10 3 10 15 0 11 -9 15 -9 15 -1 0 7 5
9 10 6 6 -3 10 -2 10 3 0 5 13 8 30 7 17 -1 27 2 24 7 -4 5 2 9 12 8 32 -4 45
0 40 9 -3 5 8 7 24 6 16 -1 27 1 25 5 -7 11 52 6 62 -5 5 -4 1 -5 -7 0 -9 5
-12 5 -7 -1 5 -5 12 -9 15 -9 20 -2 52 -18 52 -26 0 -5 9 -9 20 -9 11 0 20 -4
20 -10 0 -5 9 -10 20 -10 11 0 20 -4 20 -10 0 -5 7 -10 16 -10 8 0 12 -4 9
-10 -3 -5 -1 -10 6 -10 6 0 20 -9 30 -21 9 -11 21 -20 26 -21 4 0 7 -4 5 -9
-1 -5 7 -9 18 -9 11 0 20 -4 20 -8 0 -4 8 -8 18 -9 45 -3 62 -8 62 -18 0 -5 4
-5 8 2 8 13 29 12 51 -1 10 -7 12 -6 6 4 -6 10 -4 12 8 7 10 -3 17 -2 17 3 0
5 15 8 33 7 18 -1 31 3 30 9 -1 6 9 10 22 8 14 -1 25 1 25 5 0 4 9 7 20 8 16
1 20 -2 15 -18 -4 -13 -2 -19 9 -19 10 0 13 -6 10 -15 -4 -8 -2 -15 4 -15 6 0
16 -17 23 -37 16 -50 48 -103 62 -103 7 0 5 -5 -3 -10 -8 -5 -10 -10 -4 -10 6
0 19 -16 30 -35 10 -19 24 -35 31 -35 7 0 12 -5 11 -12 -2 -7 7 -17 20 -23 12
-5 22 -13 22 -18 0 -4 4 -5 10 -2 6 3 10 2 10 -4 0 -6 7 -8 15 -4 9 3 24 -2
33 -10 14 -13 39 -16 110 -15 64 0 90 4 85 12 -4 6 2 4 12 -4 10 -8 16 -10 12
-3 -4 6 -3 14 3 18 5 3 10 0 10 -7 0 -7 10 -2 21 12 11 14 18 18 14 10 -5 -12
-4 -12 7 1 14 18 13 17 45 25 13 4 20 10 17 15 -3 5 3 9 14 9 10 0 31 11 45
24 14 13 28 21 31 18 3 -3 6 0 6 7 0 7 4 10 9 7 5 -3 12 1 15 10 3 8 10 13 15
10 5 -3 11 1 15 9 3 8 2 15 -2 16 -4 0 -15 2 -25 4 -9 2 -15 -1 -11 -6 3 -5 0
-9 -5 -9 -6 0 -11 6 -11 13 0 8 -4 7 -10 -3 -8 -13 -10 -13 -10 -1 0 11 -4 9
-14 -5 -14 -18 -15 -18 -22 -1 -5 15 -9 16 -15 5 -6 -9 -9 -9 -9 -1 0 8 -16
11 -50 9 -27 -1 -50 1 -50 5 0 9 -20 6 -39 -5 -10 -6 -12 -5 -7 2 7 12 -5 16
-31 13 -7 -1 -13 3 -13 9 0 5 -7 10 -15 10 -8 0 -15 5 -15 10 0 6 -5 10 -11
10 -15 0 -39 26 -32 34 4 3 1 6 -6 6 -13 0 -36 19 -39 32 -7 24 -17 45 -28 56
-7 7 -11 22 -8 35 3 12 6 29 8 36 1 8 8 17 14 19 7 2 10 7 7 12 -3 5 6 17 20
28 13 11 21 22 18 26 -3 3 -1 6 6 6 7 0 10 4 6 9 -3 5 4 12 15 16 11 3 20 11
20 16 0 5 5 9 11 9 6 0 20 11 31 25 11 14 28 25 38 25 10 0 22 5 25 10 4 6 11
8 16 5 5 -4 9 -1 9 4 0 6 6 11 14 11 8 0 17 6 19 13 4 8 6 8 6 -2 1 -11 5 -10
17 5 8 10 13 13 9 7 -9 -18 3 -16 22 2 8 9 20 14 27 12 6 -2 17 2 24 9 7 7 20
10 29 7 11 -4 14 -3 9 5 -4 8 -2 10 7 6 8 -3 17 2 21 12 5 13 9 14 21 4 11 -9
15 -9 15 -1 0 7 5 9 10 6 6 -3 10 1 10 9 0 8 -9 18 -20 21 -11 3 -20 11 -20
16 0 6 -4 7 -10 4 -5 -3 -10 -1 -10 5 0 6 -4 9 -9 6 -5 -3 -12 1 -15 9 -3 8
-9 15 -13 14 -20 -3 -34 2 -28 11 4 6 -1 7 -11 3 -13 -5 -15 -3 -9 7 6 10 4
12 -8 7 -8 -3 -21 1 -28 9 -7 9 -21 13 -31 10 -11 -2 -22 2 -25 10 -4 12 -8
12 -21 2 -11 -9 -13 -9 -9 -1 4 6 3 14 -3 18 -5 3 -10 0 -10 -7 0 -9 -3 -9
-10 2 -7 12 -10 12 -10 1 0 -7 -6 -11 -14 -8 -8 3 -17 -1 -20 -10 -5 -12 -9
-13 -21 -3 -14 12 -19 7 -16 -13 1 -5 -3 -6 -8 -3 -14 9 -82 -34 -74 -47 4 -6
1 -7 -6 -3 -7 5 -19 0 -27 -10 -9 -11 -12 -13 -9 -6 6 11 3 12 -14 3 -11 -7
-21 -16 -21 -22 0 -5 -12 -14 -26 -19 -15 -6 -22 -14 -18 -22 4 -6 3 -8 -3 -5
-6 4 -21 -3 -35 -16 -13 -12 -28 -24 -33 -27 -6 -3 -9 -8 -7 -12 1 -5 -7 -8
-18 -8 -11 0 -19 -6 -18 -12 2 -7 -3 -12 -9 -10 -7 1 -13 -2 -13 -7 0 -5 -7
-12 -16 -15 -10 -4 -13 -2 -8 6 5 8 2 9 -9 5 -10 -3 -17 -2 -17 4 0 6 -4 8 -9
4 -5 -3 -13 -1 -16 5 -5 8 -11 8 -20 0 -9 -8 -15 -8 -20 0 -3 5 -17 10 -31 10
-13 0 -24 6 -24 13 0 9 -3 8 -9 -2 -6 -9 -10 -9 -12 -2 -2 6 -16 12 -31 13
-16 1 -28 6 -28 10 0 4 -3 7 -7 7 -22 -4 -33 2 -27 14 6 9 4 9 -8 -1 -13 -10
-17 -10 -22 4 -4 9 -10 14 -13 10 -4 -4 -13 4 -20 16 -7 14 -12 17 -13 9 0
-11 -4 -9 -15 5 -18 24 -19 48 -2 66 6 7 12 19 13 26 2 29 5 33 14 27 6 -3 7
1 4 9 -3 9 -1 16 5 16 6 0 11 9 11 21 0 11 4 18 8 15 5 -3 16 8 26 25 9 16 24
29 33 29 9 0 14 3 11 6 -8 7 36 54 51 54 7 0 9 5 5 12 -5 7 -3 8 6 3 8 -5 18
-1 27 10 7 11 13 16 13 13 0 -3 16 9 37 28 20 18 40 31 45 28 4 -3 8 2 8 11 0
9 5 13 10 10 11 -7 40 18 40 34 0 5 -5 13 -12 17 -7 4 -8 3 -4 -4 5 -8 2 -10
-8 -6 -9 3 -14 9 -11 13 2 4 -2 8 -10 8 -8 0 -11 -5 -8 -11 4 -6 -1 -5 -10 2
-9 8 -21 11 -27 7 -5 -3 -10 -2 -10 3 0 5 -7 9 -15 10 -8 1 -22 3 -30 4 -8 1
-15 6 -15 12 0 6 -5 4 -10 -4 -5 -8 -10 -10 -10 -4 0 7 -13 10 -29 9 -16 -1
-34 1 -41 5 -17 11 -91 -8 -105 -27 -7 -10 -17 -13 -25 -8 -8 5 -11 4 -7 -2 6
-10 -26 -43 -43 -43 -5 0 -6 -7 -3 -17 4 -9 2 -14 -3 -10 -5 3 -19 -6 -29 -19
-11 -14 -33 -39 -50 -57 -16 -18 -29 -35 -27 -39 1 -5 -3 -8 -9 -8 -5 0 -7 -4
-4 -10 3 -5 0 -7 -7 -4 -7 3 -23 21 -35 40 -13 19 -17 32 -10 29 6 -3 2 2 -10
11 -13 9 -23 23 -23 30 0 8 -4 14 -10 14 -5 0 -10 7 -10 16 0 8 5 12 10 9 6
-3 10 -2 10 3 0 5 18 15 40 22 22 7 40 17 40 22 0 4 9 8 21 8 11 0 17 4 14 10
-3 6 1 7 9 4 9 -3 16 -1 16 6 0 6 5 8 10 5 6 -3 10 -2 10 4 0 6 6 8 14 5 8 -3
17 0 22 7 5 8 3 10 -6 4 -9 -5 -11 -4 -6 4 4 6 12 9 17 5 6 -3 19 2 30 12 10
9 22 14 25 11 4 -3 13 1 21 9 8 8 19 12 24 9 5 -4 9 -1 9 5 0 6 5 8 10 5 6 -3
10 -1 10 5 0 7 6 10 14 7 7 -3 21 4 30 14 9 11 21 17 26 14 6 -3 10 -1 10 5 0
6 5 8 10 5 6 -3 10 -1 10 5 0 7 5 10 12 8 6 -2 20 4 30 14 10 10 23 16 28 13
6 -4 10 -1 10 5 0 6 5 8 10 5 6 -3 10 -1 10 6 0 7 3 9 7 6 3 -4 12 1 20 11 9
10 11 11 7 2 -7 -13 -5 -13 9 -1 9 7 17 10 17 5 0 -5 5 -2 10 6 5 8 14 16 20
16 5 1 14 2 18 3 5 0 9 8 9 16 0 15 -9 19 -34 16 -6 -1 -17 7 -25 17 -7 11
-21 18 -31 16 -9 -1 -15 2 -11 7 3 5 -2 9 -10 9 -9 0 -16 5 -16 11 0 5 -4 7
-10 4 -6 -3 -10 -1 -10 5 0 7 -6 10 -12 7 -7 -2 -19 3 -26 12 -11 13 -12 13
-6 1 4 -8 -3 -5 -16 8 -13 14 -28 21 -38 17 -9 -3 -13 -3 -9 1 9 9 -23 33 -45
34 -10 0 -18 5 -18 10 0 6 -8 10 -18 10 -10 0 -28 9 -39 19 -12 11 -24 17 -27
14 -3 -4 -6 -1 -6 6 0 7 -4 9 -10 6 -5 -3 -10 -1 -10 5 0 6 -5 8 -10 5 -6 -3
-10 -1 -10 5 0 6 -4 8 -10 5 -5 -3 -10 -2 -10 3 0 6 -11 13 -25 16 -14 4 -24
10 -21 15 3 4 -1 8 -9 9 -8 1 -21 3 -29 4 -8 1 -14 6 -13 12 1 5 -2 11 -8 11
-20 3 -63 24 -70 35 -3 5 -11 8 -16 5 -5 -4 -9 -1 -9 5 0 6 -4 8 -10 5 -6 -3
-10 -1 -10 5 0 6 -5 8 -10 5 -6 -3 -10 -1 -10 5 0 6 -4 8 -10 5 -6 -3 -10 1
-10 9 0 10 -6 13 -17 9 -10 -4 -14 -2 -9 5 4 7 -1 10 -13 7 -11 -2 -22 3 -25
11 -3 9 -11 12 -16 9 -6 -4 -17 -1 -25 5 -8 6 -19 9 -25 5 -5 -3 -10 -1 -10 6
0 6 -8 9 -19 6 -12 -3 -22 1 -25 10 -5 12 -9 13 -21 3 -12 -10 -15 -9 -15 6 0
14 -2 16 -9 6 -7 -11 -9 -11 -14 2 -4 9 -13 13 -22 10 -8 -3 -15 -1 -15 4 0 6
-9 9 -20 7 -11 -2 -20 0 -20 5 0 5 -9 7 -20 5 -11 -2 -19 1 -17 7 1 6 -7 12
-18 14 -32 5 -49 9 -70 20 -11 6 -27 10 -35 9 -8 0 -17 3 -20 7 -3 4 -17 9
-30 11 -13 2 -26 9 -27 14 -2 6 -13 9 -23 6 -12 -3 -20 0 -20 7 0 7 -6 10 -14
7 -7 -3 -19 0 -25 6 -6 6 -11 7 -11 3 0 -5 -7 -3 -15 4 -8 7 -21 10 -30 7 -8
-4 -19 1 -24 11 -6 9 -11 14 -11 9 0 -4 -13 -1 -29 7 -16 9 -31 12 -35 9 -3
-4 -6 -1 -6 5 0 6 -7 9 -15 6 -8 -4 -15 -2 -15 3 0 5 -8 9 -17 9 -30 1 -47 8
-61 24 -12 13 -13 13 -6 0 7 -13 5 -13 -9 -2 -9 8 -21 11 -27 7 -5 -3 -10 -1
-10 5 0 6 -4 9 -9 5 -5 -3 -12 -1 -16 5 -4 6 -11 8 -16 5 -5 -4 -12 1 -15 10
-6 13 -8 14 -15 3 -7 -11 -9 -11 -9 0 0 9 -7 11 -20 7 -14 -5 -20 -2 -20 10 0
9 -5 13 -11 10 -6 -4 -1 11 10 34 12 23 18 41 14 41 -4 0 2 7 13 16 10 8 12
12 4 8 -13 -7 -13 -5 -1 9 7 9 10 17 7 17 -4 0 0 7 8 16 9 8 14 20 11 25 -4 5
2 9 11 9 14 0 15 3 6 12 -8 8 -6 16 10 30 12 10 16 18 10 18 -7 0 -4 12 6 30
9 16 20 30 24 30 4 0 5 6 2 14 -3 7 1 20 9 27 7 8 12 20 9 27 -2 6 1 12 6 12
11 0 25 38 22 59 -1 7 3 10 9 7 5 -4 12 -2 16 4 3 5 0 10 -7 10 -11 0 -11 2 0
9 7 4 14 16 16 25 1 10 7 21 12 24 9 7 16 27 17 49 0 7 6 14 14 17 7 3 13 12
13 21 0 8 5 15 11 15 8 0 8 5 -1 15 -10 12 -10 15 4 15 9 0 16 8 16 19 0 11 7
26 15 34 8 8 11 17 8 21 -4 3 -1 6 6 6 7 0 10 4 6 9 -3 5 1 15 8 23 8 7 12 19
9 26 -2 6 1 12 8 12 6 0 9 4 6 9 -3 5 1 12 10 15 8 3 12 10 9 16 -3 5 -1 10 5
10 6 0 8 4 5 10 -3 6 -1 10 5 10 6 0 8 5 5 10 -3 6 0 13 9 16 8 3 13 11 10 19
-3 7 1 19 9 27 8 8 18 24 21 36 4 12 12 22 17 22 6 0 8 4 4 9 -3 5 2 17 11 25
8 9 12 16 7 16 -4 0 1 7 11 15 11 8 16 15 12 15 -5 0 -3 7 4 15 7 8 9 15 4 15
-5 0 -1 5 9 11 9 6 15 14 13 18 -3 4 4 18 15 30 12 12 18 28 15 36 -3 10 0 12
11 8 10 -4 14 -2 9 5 -3 6 -2 13 4 17 6 4 8 11 5 16 -4 5 -1 9 5 9 5 0 18 16
27 35 9 19 20 32 25 29 5 -3 8 -2 7 3 -5 21 15 63 33 69 11 3 17 8 14 11 -5 5
21 48 49 80 31 37 35 43 30 43 -3 0 0 6 7 14 7 8 16 12 20 9 4 -2 5 4 1 13 -4
12 -3 15 5 10 7 -4 12 -1 12 9 0 9 5 13 10 10 6 -3 10 1 10 9 0 8 9 17 20 21
11 3 19 9 18 13 -2 4 10 21 26 37 16 17 25 23 21 15 -5 -8 6 0 24 18 18 17 37
29 43 26 6 -4 8 -2 5 3 -8 13 19 37 32 29 5 -4 13 3 16 15 4 11 9 18 12 15 4
-3 12 2 20 12 10 11 12 12 8 2 -4 -8 1 -6 9 4 9 11 16 16 16 10 0 -5 7 -1 14
9 8 10 23 19 34 20 13 1 18 6 14 16 -3 9 -1 12 5 8 6 -4 17 -1 25 6 7 8 19 12
27 9 8 -3 11 0 8 5 -3 5 3 15 15 22 16 10 19 10 13 -1 -3 -7 1 -4 10 7 9 11
19 20 23 20 4 0 6 3 5 7 -2 4 4 5 12 2 8 -4 31 6 50 20 19 14 40 25 47 24 7
-2 12 2 11 7 -1 6 8 12 20 12 12 1 27 9 33 17 6 9 14 13 17 9 4 -3 7 -1 7 6 0
7 5 9 10 6 6 -3 10 -2 10 4 0 6 7 8 15 5 8 -4 17 1 21 10 3 9 10 14 14 11 5
-3 11 -1 15 5 4 6 11 8 16 5 5 -4 9 -1 9 5 0 6 5 8 10 5 6 -3 13 1 16 9 3 9
10 13 15 10 5 -3 9 1 9 8 0 9 3 9 10 -2 7 -11 10 -11 10 -2 0 7 4 11 9 8 5 -3
11 1 15 9 3 9 12 12 22 8 13 -5 15 -3 9 7 -6 10 -4 12 8 7 10 -4 17 -2 17 4 0
7 9 9 21 6 12 -3 18 -3 15 0 -8 8 13 33 28 33 6 0 4 -5 -4 -10 -8 -5 -10 -10
-4 -10 6 0 17 7 24 15 7 8 16 12 21 9 5 -3 9 0 9 6 0 6 4 9 9 6 5 -3 12 1 15
10 5 13 9 14 21 4 12 -10 16 -9 21 4 3 9 10 13 15 10 5 -3 9 -1 9 5 0 6 7 8
15 5 8 -4 17 1 21 10 3 9 10 13 15 10 5 -3 9 0 9 6 0 8 6 8 20 0 16 -9 19 -8
13 7 -5 12 -2 15 10 10 8 -3 21 0 27 8 6 7 20 12 30 10 11 -2 23 1 26 7 5 7 2
8 -6 3 -9 -5 -11 -4 -6 4 4 6 18 9 32 7 14 -3 22 -1 19 5 -4 5 1 9 10 9 10 0
13 5 9 12 -4 6 -3 8 3 5 13 -8 83 11 83 23 0 6 5 10 11 10 5 0 7 -6 4 -12 -4
-7 -1 -6 7 2 13 15 31 22 56 23 6 0 12 4 12 9 0 5 5 6 10 3 6 -3 10 -2 10 4 0
6 7 8 15 5 8 -4 15 -1 15 5 0 6 6 11 14 11 8 0 17 6 19 13 4 9 6 9 6 0 1 -10
7 -10 26 -1 14 6 25 15 25 19 0 4 9 6 20 4 11 -2 20 1 20 7 0 6 3 8 7 5 3 -4
12 1 20 11 12 16 13 15 7 -3 -6 -18 -5 -18 15 3 24 24 36 29 25 10 -6 -10 -4
-10 7 0 7 6 21 12 32 12 10 0 15 4 12 10 -3 6 1 7 9 4 9 -3 16 -1 16 5 0 6 5
11 11 11 5 0 7 -5 3 -11 -3 -6 5 -4 18 5 14 9 28 13 33 9 4 -5 5 -3 1 4 -3 6
-2 14 4 18 5 3 10 1 10 -6 0 -8 3 -9 13 0 8 6 17 8 20 4 4 -3 7 -1 7 6 0 8 7
11 15 7 8 -3 15 -1 15 5 0 6 5 7 10 4 6 -3 10 -1 10 5 0 6 4 9 9 6 5 -4 12 0
14 6 4 9 6 9 6 1 1 -14 51 7 51 22 0 6 5 3 10 -5 6 -10 10 -11 10 -2 0 6 7 12
15 12 8 0 15 5 15 11 0 5 4 8 9 5 5 -4 22 -1 38 6 15 6 31 11 36 10 4 -1 7 3
7 9 0 5 5 7 10 4 6 -4 18 -1 27 7 14 11 16 11 9 -2 -6 -12 -4 -11 6 1 7 9 19
14 27 11 8 -3 11 0 7 7 -4 7 -2 9 8 5 8 -3 28 2 45 11 17 8 31 13 31 11 0 -3
13 0 30 5 16 6 28 15 25 19 -3 4 5 6 17 2 15 -4 19 -2 13 8 -6 10 -4 10 11 2
14 -8 25 -6 44 8 14 9 33 16 43 15 9 -2 14 1 11 7 -3 5 0 9 7 7 29 -3 40 1 33
14 -5 8 -2 8 9 -2 13 -10 17 -10 17 -1 0 7 6 10 14 7 8 -3 20 1 27 9 7 8 18
13 25 10 7 -3 16 -1 19 4 3 5 12 7 20 3 8 -3 15 0 15 7 0 6 4 9 9 5 5 -3 12
-1 16 5 4 6 11 8 16 5 5 -4 9 -1 9 5 0 6 5 8 10 5 6 -4 24 1 41 9 17 9 35 13
40 10 5 -3 9 -1 9 5 0 6 7 7 17 4 12 -5 14 -3 8 8 -7 12 -6 12 7 1 13 -10 17
-10 21 3 4 8 13 12 22 9 9 -4 15 -1 15 7 0 11 3 11 10 -1 5 -8 10 -10 10 -5 0
13 69 40 77 31 3 -3 12 2 20 12 8 9 12 11 8 5 -3 -7 -2 -13 3 -13 6 0 12 6 15
14 3 8 16 12 31 11 14 -2 26 0 26 4 0 4 7 8 15 9 8 1 22 3 30 4 8 1 15 5 15 9
0 4 9 6 20 4 11 -2 20 1 20 6 0 6 9 7 21 4 15 -5 19 -4 15 4 -5 7 2 12 18 13
48 2 51 3 57 11 3 4 16 9 27 10 12 1 22 6 22 11 0 5 3 6 7 3 3 -4 13 -1 21 6
13 9 14 9 8 0 -5 -9 -2 -11 8 -7 9 3 16 9 16 13 0 4 11 8 25 9 46 3 55 5 55
12 0 4 7 7 15 8 8 1 22 3 30 4 8 1 15 5 15 10 0 5 5 6 10 3 6 -3 10 0 10 7 0
11 2 11 9 0 6 -11 11 -10 25 3 11 11 25 15 41 11 16 -4 25 -2 25 5 0 6 9 9 20
6 11 -3 23 0 27 5 4 7 1 8 -7 3 -8 -5 -11 -4 -7 2 3 5 16 9 29 8 13 -1 26 3
30 9 5 8 8 7 8 -1 0 -7 6 -10 14 -7 8 3 13 12 12 19 -3 19 -16 32 -16 16 0 -7
-5 -9 -10 -6 -6 4 -7 11 -4 17 5 7 1 9 -9 5 -10 -3 -17 -3 -17 1 0 4 -12 8
-26 9 -15 0 -30 7 -35 15 -6 10 -9 10 -9 1 0 -7 -5 -13 -11 -13 -5 0 -7 4 -4
10 3 5 -7 13 -22 16 -15 4 -38 14 -50 22 -19 12 -23 12 -23 1 0 -11 -2 -11
-10 1 -5 8 -10 11 -10 5 0 -5 -5 -2 -11 7 -5 10 -16 15 -24 11 -9 -3 -22 0
-30 7 -8 6 -19 9 -25 5 -5 -3 -13 0 -16 9 -4 9 -16 13 -35 11 -17 -3 -27 0
-24 5 4 6 -3 10 -14 10 -12 0 -21 4 -21 8 0 4 -12 9 -26 10 -15 1 -33 7 -40
13 -7 6 -18 8 -24 4 -5 -3 -12 0 -15 7 -3 8 -17 15 -31 16 -14 1 -35 7 -47 14
-12 7 -28 11 -34 10 -7 -2 -13 2 -13 8 0 5 -3 9 -7 9 -22 -4 -33 2 -27 14 5 8
2 8 -9 -2 -13 -11 -17 -11 -17 -1 0 8 -3 10 -6 7 -4 -3 -16 -1 -28 6 -11 6
-25 12 -31 13 -28 1 -83 29 -78 38 4 6 0 5 -9 -2 -12 -10 -18 -10 -27 2 -7 8
-19 12 -27 9 -8 -3 -14 0 -14 7 0 10 -4 9 -16 0 -12 -11 -15 -11 -12 0 2 8 -1
14 -7 15 -5 0 -16 4 -24 9 -10 7 -12 5 -7 -5 4 -8 1 -6 -8 5 -8 10 -22 16 -30
13 -8 -3 -16 -2 -18 3 -2 5 -13 11 -25 13 -12 2 -26 6 -29 10 -4 4 -16 7 -26
7 -10 0 -18 4 -18 8 0 4 -8 8 -18 9 -25 2 -46 7 -52 13 -16 16 -50 29 -50 19
0 -6 -14 0 -32 12 -17 13 -28 18 -24 11 5 -8 2 -10 -8 -6 -9 3 -16 10 -16 14
0 5 -9 6 -20 3 -11 -3 -20 -1 -20 4 0 5 -12 10 -27 11 -16 1 -30 7 -31 13 -3
6 -9 6 -18 -2 -11 -9 -14 -8 -14 1 0 8 -3 10 -7 7 -3 -4 -12 1 -20 11 -8 9
-12 12 -9 5 4 -7 -1 -11 -14 -10 -11 1 -20 5 -20 9 0 4 -11 8 -25 8 -14 0 -25
6 -25 13 0 8 -4 7 -10 -3 -7 -12 -10 -12 -10 -1 0 7 -6 11 -15 7 -8 -3 -15 0
-15 7 0 8 -4 6 -10 -3 -7 -11 -10 -11 -10 -2 0 7 -4 10 -10 7 -5 -3 -10 -1
-10 6 0 7 -3 9 -7 6 -3 -4 -13 -1 -21 6 -13 10 -14 9 -7 -3 7 -12 6 -13 -7 -3
-8 7 -18 10 -21 6 -4 -3 -7 -1 -7 6 0 9 -5 9 -21 0 -15 -8 -19 -8 -15 0 6 9
-17 16 -27 9 -2 -2 -11 3 -20 11 -12 9 -17 10 -17 2 0 -7 -5 -9 -10 -6 -6 4
-7 11 -4 17 4 6 -1 6 -14 -1 -14 -7 -23 -8 -27 -1 -4 6 -11 8 -16 5 -5 -4 -9
-2 -9 4 0 10 -8 11 -62 12 -16 1 -28 4 -28 9 0 4 -16 6 -35 5 -29 -1 -33 1
-22 13 10 13 9 14 -10 3 -16 -8 -23 -8 -23 -1 0 7 -7 7 -21 -1 -17 -9 -20 -8
-14 2 6 9 4 11 -7 6 -9 -3 -26 2 -39 10 -12 9 -19 11 -15 5 4 -7 2 -12 -3 -12
-6 0 -11 6 -11 13 0 8 -4 7 -10 -3 -5 -8 -10 -10 -10 -3 0 6 -16 11 -36 11
-19 0 -38 3 -41 6 -3 3 -12 1 -20 -6 -11 -9 -12 -7 -7 7 6 15 4 16 -14 6 -13
-7 -23 -7 -27 -1 -3 5 -13 6 -22 3 -9 -4 -14 -2 -11 3 4 5 -8 10 -25 11 -18 1
-48 3 -67 4 -20 2 -41 0 -47 -4 -6 -4 -14 -3 -17 2 -3 5 -15 7 -26 4 -13 -3
-20 0 -20 8 0 9 -3 10 -8 4 -4 -5 -17 -10 -28 -11 -16 0 -20 4 -16 15 4 13 3
14 -9 5 -18 -13 -57 -16 -64 -3 -4 5 -14 5 -26 -1 -11 -7 -19 -7 -19 -1 0 10
-19 9 -37 -2 -7 -5 -13 -4 -13 0 0 5 -9 9 -20 9 -11 0 -20 -5 -20 -10 0 -6 -4
-6 -11 1 -7 7 -23 8 -45 3 -19 -4 -36 -4 -39 1 -3 4 -17 4 -30 -1 -17 -6 -25
-6 -25 1 0 6 -5 7 -12 2 -18 -11 -32 -10 -40 2 -5 6 -8 2 -8 -8 0 -17 -1 -17
-16 -2 -12 11 -19 13 -24 5 -4 -6 -19 -9 -33 -6 -15 3 -27 2 -27 -2 0 -4 -21
-7 -47 -6 -27 0 -51 -5 -55 -10 -5 -8 -8 -8 -8 0 0 11 -35 13 -45 2 -3 -3 -19
-4 -36 -2 -16 2 -27 0 -24 -5 3 -5 0 -13 -6 -17 -7 -4 -9 -3 -5 4 3 6 2 13 -4
17 -5 3 -10 1 -10 -5 0 -7 -6 -8 -18 -1 -13 7 -23 6 -30 -1 -7 -7 -12 -8 -12
-4 0 5 -7 3 -15 -4 -8 -7 -15 -9 -15 -5 0 4 -7 2 -15 -5 -13 -11 -14 -10 -8 6
6 17 5 17 -10 5 -9 -7 -24 -11 -32 -7 -8 3 -15 1 -15 -4 0 -6 -5 -10 -11 -10
-5 0 -7 6 -3 13 4 6 -1 4 -12 -5 -13 -11 -24 -14 -34 -8 -9 5 -19 5 -27 -1 -6
-6 -20 -9 -30 -7 -10 1 -24 -1 -30 -5 -7 -5 -13 -5 -13 0 0 4 -5 1 -10 -7 -8
-12 -10 -12 -10 -1 0 11 -3 11 -15 1 -12 -10 -15 -10 -15 1 0 10 -2 11 -8 2
-4 -7 -25 -14 -47 -17 -22 -2 -40 -5 -40 -6 0 -1 -18 -4 -40 -6 -22 -2 -46 -5
-52 -6 -7 -1 -13 -6 -13 -11 0 -5 -8 -3 -17 4 -11 10 -14 10 -9 2 7 -13 -3
-17 -37 -13 -10 1 -25 -4 -33 -10 -8 -7 -14 -8 -14 -3 0 5 -7 10 -15 10 -8 0
-12 -4 -9 -9 4 -7 -26 -13 -48 -9 -5 0 -8 -3 -8 -8 0 -12 -53 -9 -62 4 -4 5
-8 -1 -8 -15 0 -20 -2 -22 -10 -10 -9 13 -10 13 -10 0 0 -13 -1 -13 -10 0 -9
13 -12 13 -24 -3 -11 -14 -15 -15 -19 -5 -4 11 -6 11 -6 0 -1 -7 -6 -10 -11
-7 -6 4 -18 1 -27 -7 -12 -9 -15 -9 -9 -1 5 9 2 11 -8 7 -9 -3 -14 -9 -12 -13
3 -4 -9 -7 -27 -6 -40 1 -59 -4 -51 -16 3 -5 -2 -6 -11 -3 -8 4 -27 -2 -41
-11 -15 -9 -24 -13 -20 -7 3 6 -4 9 -18 8 -16 0 -21 -5 -16 -12 6 -7 -1 -9
-20 -8 -17 1 -30 -2 -30 -7 0 -4 -7 -6 -15 -3 -8 4 -15 1 -15 -4 0 -6 -9 -9
-20 -7 -11 2 -20 0 -20 -4 0 -7 -8 -9 -47 -12 -10 -1 -26 -9 -35 -17 -10 -8
-18 -12 -18 -7 0 4 -12 0 -26 -10 -18 -11 -24 -12 -18 -4 6 11 5 12 -8 2 -8
-7 -18 -10 -21 -6 -4 3 -7 1 -7 -6 0 -8 -7 -11 -15 -7 -8 3 -15 1 -15 -5 0 -6
-7 -8 -16 -5 -8 3 -12 2 -9 -4 3 -6 -3 -10 -14 -10 -12 0 -21 -4 -21 -10 0 -5
-7 -7 -15 -4 -8 4 -17 -1 -21 -10 -3 -9 -10 -16 -16 -16 -5 0 -6 5 -3 11 4 6
-2 5 -14 -3 -12 -7 -21 -17 -21 -21 0 -5 -7 -7 -15 -3 -8 3 -15 1 -15 -5 0 -6
-5 -7 -12 -3 -7 5 -9 2 -6 -7 4 -10 -1 -15 -15 -17 -12 0 -23 -6 -25 -12 -2
-5 -8 -8 -13 -4 -5 3 -9 0 -9 -6 0 -7 -7 -10 -15 -6 -9 3 -15 0 -15 -9 0 -8
-7 -15 -15 -15 -8 0 -15 -5 -15 -11 0 -5 -4 -8 -8 -5 -5 3 -16 -4 -25 -15 -9
-10 -24 -19 -32 -19 -9 0 -13 -4 -10 -10 3 -5 -1 -10 -9 -10 -9 0 -16 -5 -16
-11 0 -5 -4 -8 -9 -5 -5 3 -11 -1 -15 -9 -3 -8 -12 -15 -20 -15 -9 0 -20 -9
-26 -20 -6 -11 -15 -18 -20 -15 -5 3 -14 -4 -20 -15 -6 -11 -15 -18 -20 -15
-6 3 -15 -5 -21 -19 -7 -14 -15 -23 -19 -21 -11 7 -51 -25 -45 -36 4 -5 -1 -9
-9 -9 -8 0 -29 -13 -46 -30 -16 -16 -30 -27 -30 -24 0 4 -13 -8 -29 -25 -15
-16 -31 -28 -34 -25 -3 3 -8 -4 -12 -15 -3 -12 -11 -19 -16 -16 -5 4 -9 1 -9
-5 0 -6 -4 -8 -10 -5 -5 3 -10 -2 -10 -11 0 -10 -3 -15 -6 -11 -3 3 -19 -8
-35 -24 -16 -16 -29 -26 -29 -22 -1 4 -7 -3 -15 -17 -8 -14 -14 -21 -15 -17 0
4 -18 -10 -39 -32 -21 -22 -41 -37 -44 -35 -3 3 -8 -4 -12 -15 -3 -12 -11 -19
-16 -15 -5 3 -6 10 -3 16 4 7 2 8 -5 4 -6 -4 -9 -12 -5 -17 5 -9 -27 -49 -40
-49 -9 0 29 58 60 93 16 17 28 35 26 40 -1 4 5 7 15 7 9 0 13 3 10 6 -4 4 3
15 15 25 11 11 18 19 15 19 -4 0 1 9 10 19 9 11 20 18 25 15 5 -3 8 -2 7 3 -3
20 2 34 11 28 9 -6 14 8 11 28 0 4 6 7 14 7 8 0 15 5 15 11 0 5 5 7 10 4 6 -4
10 -3 9 2 -4 17 14 43 30 43 14 0 14 2 1 10 -11 7 -12 10 -2 10 7 0 20 7 28
15 9 8 13 15 9 15 -3 0 0 6 7 14 7 8 16 12 19 10 4 -2 9 6 12 17 3 12 10 18
17 14 6 -4 9 -1 8 7 -2 7 3 12 10 10 6 -1 11 1 11 5 -3 18 1 33 9 31 4 -2 7
-1 8 2 1 12 57 65 66 62 5 -1 7 2 3 8 -3 5 -1 10 4 10 6 0 11 8 11 17 0 9 2
14 5 11 7 -6 85 71 85 83 0 5 8 9 17 9 9 0 14 3 10 6 -3 4 20 32 51 62 31 31
56 60 55 64 -2 4 4 5 12 2 8 -4 15 -1 15 6 0 19 171 181 184 173 6 -4 4 2 -4
13 -8 10 -11 16 -6 12 5 -4 17 3 27 15 10 12 18 19 19 15 0 -3 24 17 53 45 28
29 55 51 59 49 5 -1 7 1 6 6 -2 4 26 36 62 72 35 36 61 58 56 50 -4 -8 1 -5
12 7 11 12 23 19 26 15 4 -3 4 2 0 12 -5 14 -4 17 4 12 7 -4 12 -1 12 8 0 10
6 13 17 9 13 -5 15 -2 10 11 -4 10 -3 15 3 11 6 -3 10 -1 10 6 0 7 3 10 6 7 3
-4 24 13 47 37 22 24 44 42 49 39 4 -3 8 2 8 10 0 9 7 16 16 16 8 0 13 4 10 8
-3 5 6 15 19 22 14 7 25 20 25 27 0 8 5 11 10 8 6 -3 10 -1 10 5 0 6 5 8 10 5
6 -3 10 1 10 9 0 8 9 18 21 21 11 4 18 9 15 12 -3 4 8 16 24 28 16 12 26 25
22 29 -4 4 -2 7 3 6 22 -5 35 1 35 16 0 8 4 13 9 9 5 -3 12 4 16 15 3 11 11
20 17 20 6 0 21 11 34 26 13 14 24 22 24 17 0 -4 7 3 16 15 8 12 20 19 26 16
7 -4 8 -2 4 5 -4 6 0 14 11 18 10 4 24 15 31 25 7 10 18 15 24 12 7 -4 8 -2 4
5 -4 6 0 14 8 17 9 3 13 11 9 17 -3 5 -1 7 4 4 6 -4 32 14 58 38 26 25 51 45
57 45 5 0 6 5 3 10 -3 6 1 10 9 10 9 0 16 5 16 11 0 6 7 8 16 5 8 -3 12 -2 9
4 -3 6 -1 10 6 10 7 0 9 3 5 7 -4 5 -35 8 -68 9 -35 1 -54 -2 -47 -7 10 -6 7
-8 -8 -6 -12 0 -20 4 -17 8 5 9 -23 5 -32 -4 -4 -3 -15 -2 -25 4 -14 7 -17 6
-14 -3z m-48 -6218 c7 -14 13 -19 13 -12 0 8 6 6 18 -5 10 -10 18 -20 16 -21
-5 -7 -74 30 -74 40 0 5 5 6 12 2 7 -4 8 -3 4 5 -6 9 -11 9 -21 1 -9 -7 -16
-6 -24 3 -9 11 -6 14 16 13 19 -1 32 -9 40 -26z"/>
</g>
</svg>
