<?xml version="1.0" encoding="UTF-8" standalone="no"?>
<!DOCTYPE svg PUBLIC "-//W3C//DTD SVG 1.1//EN" "http://www.w3.org/Graphics/SVG/1.1/DTD/svg11.dtd">
<svg width="100%" height="100%" viewBox="0 0 64 57" version="1.1" xmlns="http://www.w3.org/2000/svg" xmlns:xlink="http://www.w3.org/1999/xlink" xml:space="preserve" xmlns:serif="http://www.serif.com/" style="fill-rule:evenodd;clip-rule:evenodd;stroke-linejoin:round;stroke-miterlimit:2;">
    <g transform="matrix(0.821057,0,0,0.821057,6.39533,-2.02684)">
        <g id="Blue">
            <path d="M24.7,43.51L37.75,43.51L40.9,25.12L21.23,25.12L24.7,43.51Z" style="fill:none;fill-rule:nonzero;"/>
            <path d="M2,6.26L1.974,6.26C0.877,6.26 -0.026,7.163 -0.026,8.26C-0.026,8.367 -0.017,8.474 0,8.58L8.49,60.12C8.707,61.417 9.835,62.379 11.15,62.39L51.88,62.39C52.866,62.403 53.722,61.684 53.88,60.71L62.37,8.59C62.387,8.484 62.396,8.377 62.396,8.27C62.396,7.173 61.493,6.27 60.396,6.27L60.37,6.27L2,6.26ZM37.75,43.51L24.75,43.51L21.23,25.12L40.9,25.12L37.75,43.51Z" style="fill-rule:nonzero;"/>
            <path d="M59.67,25.12L40.9,25.12L37.75,43.51L24.75,43.51L9.4,61.73C9.886,62.151 10.507,62.385 11.15,62.39L51.89,62.39C52.876,62.403 53.732,61.684 53.89,60.71L59.67,25.12Z" style="fill-rule:nonzero;"/>
        </g>
    </g>
</svg>
