<?xml version="1.0" encoding="UTF-8" standalone="no"?>
<!DOCTYPE svg PUBLIC "-//W3C//DTD SVG 1.1//EN" "http://www.w3.org/Graphics/SVG/1.1/DTD/svg11.dtd">
<svg width="100%" height="100%" viewBox="0 0 259 259" version="1.1" xmlns="http://www.w3.org/2000/svg" xmlns:xlink="http://www.w3.org/1999/xlink" xml:space="preserve" xmlns:serif="http://www.serif.com/" style="fill-rule:evenodd;clip-rule:evenodd;stroke-linejoin:round;stroke-miterlimit:2;">
    <g transform="matrix(0.77716,0,0,0.77716,25.7372,25.7374)">
        <path id="Blue_1_" d="M248.082,4.588C255.937,4.588 262.305,10.955 262.305,18.812L262.305,248.082C262.305,255.938 255.936,262.307 248.082,262.307L182.409,262.307L182.409,162.504L215.908,162.504L220.924,123.609L182.409,123.609L182.409,98.777C182.409,87.516 185.536,79.842 201.684,79.842L222.28,79.833L222.28,45.045C218.718,44.571 206.492,43.512 192.268,43.512C162.573,43.512 142.243,61.638 142.243,94.925L142.243,123.609L108.658,123.609L108.658,162.504L142.243,162.504L142.243,262.307L18.812,262.307C10.954,262.307 4.588,255.937 4.588,248.082L4.588,18.812C4.588,10.955 10.955,4.588 18.812,4.588L248.082,4.588Z" style="fill-rule:nonzero;"/>
    </g>
</svg>
