<svg version="1.1" xmlns="http://www.w3.org/2000/svg" xml:space="preserve" viewBox="124.22 124.02 337.67 310.98">
<style type="text/css">
	.st3{fill:#E24329;}
	.st4{fill:#FCA326;}
	.st5{fill:#FC6D26;}
</style>
    <path class="st3" d="M293.026,434.983L293.026,434.983l62.199-191.322H230.918L293.026,434.983L293.026,434.983z"/>
    <path class="st4" d="M143.798,243.662L143.798,243.662l-18.941,58.126c-1.714,5.278,0.137,11.104,4.661,14.394 l163.509,118.801L143.798,243.662L143.798,243.662z"/>
    <path class="st3" d="M143.798,243.662h87.12l-37.494-115.224c-1.919-5.895-10.282-5.895-12.27,0L143.798,243.662 L143.798,243.662z"/>
    <path class="st4" d="M442.346,243.662L442.346,243.662l18.873,58.126c1.714,5.278-0.137,11.104-4.661,14.394 L293.026,434.983L442.346,243.662L442.346,243.662z"/>
    <path class="st3" d="M442.346,243.662h-87.12l37.425-115.224c1.919-5.895,10.282-5.895,12.27,0L442.346,243.662 L442.346,243.662z"/>
    <polygon class="st5" points="293.026,434.983 355.225,243.662 442.346,243.662"/>
    <polygon class="st5" points="293.026,434.983 143.798,243.662 230.918,243.662"/>
</svg>
