<?xml version="1.0" encoding="UTF-8" standalone="no"?>
<!DOCTYPE svg PUBLIC "-//W3C//DTD SVG 1.1//EN" "http://www.w3.org/Graphics/SVG/1.1/DTD/svg11.dtd">
<svg width="100%" height="100%" viewBox="0 0 534 545" version="1.1" xmlns="http://www.w3.org/2000/svg" xmlns:xlink="http://www.w3.org/1999/xlink" xml:space="preserve" xmlns:serif="http://www.serif.com/" style="fill-rule:evenodd;clip-rule:evenodd;stroke-linejoin:round;stroke-miterlimit:2;">
    <g transform="matrix(0.805928,0,0,0.805928,52.0388,53.1741)">
        <path d="M533.5,278.4C533.5,259.9 532,241.3 528.8,223.1L272.1,223.1L272.1,327.9L419.1,327.9C413,361.7 393.4,391.6 364.7,410.6L364.8,410.6L452.4,478.6C503.9,431.2 533.5,361.2 533.5,278.4ZM272.1,544.3C345.5,544.3 407.4,520.2 452.5,478.6L364.8,410.6C340.4,427.2 308.9,436.6 272.2,436.6C201.2,436.6 141,388.7 119.4,324.3L28.9,394.4C75.1,486.3 169.2,544.3 272.1,544.3ZM119.4,324.3C108,290.5 107.9,253.9 119.3,220.1L28.9,150C-9.7,226.9 -9.7,317.5 28.9,394.4L119.4,324.3ZM272.1,107.7C310.9,107.1 348.4,121.7 376.5,148.5L454.2,70.8C405,24.6 339.7,-0.8 272.1,0C169.2,0 75.1,58 28.9,150L119.3,220.1C140.8,155.6 201.1,107.7 272.1,107.7Z" style="fill-rule:nonzero;"/>
    </g>
</svg>
