<?xml version="1.0" encoding="UTF-8" standalone="no"?>
<!DOCTYPE svg PUBLIC "-//W3C//DTD SVG 1.1//EN" "http://www.w3.org/Graphics/SVG/1.1/DTD/svg11.dtd">
<svg width="100%" height="100%" viewBox="0 0 236 236" version="1.1" xmlns="http://www.w3.org/2000/svg" xmlns:xlink="http://www.w3.org/1999/xlink" xml:space="preserve" xmlns:serif="http://www.serif.com/" style="fill-rule:evenodd;clip-rule:evenodd;stroke-linejoin:round;stroke-miterlimit:2;">
    <g transform="matrix(0.804742,0,0,0.804742,14.9285,14.9284)">
        <g>
            <g>
                <g id="g3019">
                    <path d="M210.016,245.493L45.983,245.493C26.384,245.493 10.496,229.606 10.496,210.007L10.496,45.992C10.496,26.393 26.384,10.505 45.983,10.505L210.017,10.505C229.615,10.505 245.504,26.394 245.503,45.993L245.503,210.007C245.503,229.605 229.615,245.493 210.016,245.493ZM81.604,101.49L46.284,101.49L46.284,207.761L81.604,207.761L81.604,101.49ZM101.151,101.49C101.62,111.46 101.151,207.761 101.151,207.761L136.477,207.761L136.477,148.415C136.477,145.237 136.707,142.063 137.642,139.794C140.189,133.444 146.005,126.874 155.76,126.874C168.544,126.874 173.653,136.622 173.653,150.906L173.653,207.761L208.972,207.761L208.972,146.825C208.972,114.182 191.55,98.995 168.307,98.995C149.576,98.995 141.171,109.285 136.477,116.527L136.477,116.897L136.239,116.897C136.317,116.774 136.397,116.65 136.477,116.527L136.477,101.49L101.151,101.49ZM63.951,86.98C76.259,86.98 83.932,78.819 83.932,68.62C83.704,58.194 76.259,50.259 64.182,50.259C52.095,50.259 44.198,58.194 44.198,68.62C44.198,78.819 51.86,86.98 63.718,86.98L63.951,86.98Z"/>
                </g>
            </g>
        </g>
    </g>
</svg>
